REM DIRINDEX 1\2,1\3
REM DIRNAME cjc143,folder01,folder02
TITLE ""
FILE "sample sentencesTrack29.mp3" MP3
  TRACK 01 AUDIO
    TITLE "3:cjc143_3250"
    INDEX 01 00:00:00
  TRACK 02 AUDIO
    TITLE "0:"
    INDEX 01 00:00:62
  TRACK 03 AUDIO
    TITLE "3:cjc143_3251"
    INDEX 01 00:01:30
  TRACK 04 AUDIO
    TITLE "0:"
    INDEX 01 00:03:64
  TRACK 05 AUDIO
    TITLE "3:cjc143_3252"
    INDEX 01 00:04:72
  TRACK 06 AUDIO
    TITLE "0:"
    INDEX 01 00:06:71
  TRACK 07 AUDIO
    TITLE "3:cjc143_3253"
    INDEX 01 00:08:03
  TRACK 08 AUDIO
    TITLE "0:"
    INDEX 01 00:09:55
  TRACK 09 AUDIO
    TITLE "3:cjc143_3254"
    INDEX 01 00:10:65
  TRACK 10 AUDIO
    TITLE "0:"
    INDEX 01 00:13:28
  TRACK 11 AUDIO
    TITLE "3:cjc143_3255"
    INDEX 01 00:14:35
  TRACK 12 AUDIO
    TITLE "0:"
    INDEX 01 00:17:43
  TRACK 13 AUDIO
    TITLE "3:cjc143_3256"
    INDEX 01 00:18:50
  TRACK 14 AUDIO
    TITLE "0:"
    INDEX 01 00:21:13
  TRACK 15 AUDIO
    TITLE "3:cjc143_3257"
    INDEX 01 00:22:19
  TRACK 16 AUDIO
    TITLE "0:"
    INDEX 01 00:25:58
  TRACK 17 AUDIO
    TITLE "3:cjc143_3258"
    INDEX 01 00:26:67
  TRACK 18 AUDIO
    TITLE "0:"
    INDEX 01 00:28:74
  TRACK 19 AUDIO
    TITLE "3:cjc143_3259"
    INDEX 01 00:30:10
  TRACK 20 AUDIO
    TITLE "0:"
    INDEX 01 00:33:07
  TRACK 21 AUDIO
    TITLE "3:cjc143_3260"
    INDEX 01 00:34:14
  TRACK 22 AUDIO
    TITLE "0:"
    INDEX 01 00:37:52
  TRACK 23 AUDIO
    TITLE "3:cjc143_3261"
    INDEX 01 00:38:71
  TRACK 24 AUDIO
    TITLE "0:"
    INDEX 01 00:44:20
  TRACK 25 AUDIO
    TITLE "3:cjc143_3262"
    INDEX 01 00:45:28
  TRACK 26 AUDIO
    TITLE "0:"
    INDEX 01 00:48:14
  TRACK 27 AUDIO
    TITLE "3:cjc143_3263"
    INDEX 01 00:49:18
  TRACK 28 AUDIO
    TITLE "0:"
    INDEX 01 00:51:36
  TRACK 29 AUDIO
    TITLE "3:cjc143_3264"
    INDEX 01 00:52:49
  TRACK 30 AUDIO
    TITLE "0:"
    INDEX 01 00:56:31
  TRACK 31 AUDIO
    TITLE "3:cjc143_3265"
    INDEX 01 00:57:39
  TRACK 32 AUDIO
    TITLE "0:"
    INDEX 01 01:01:62
  TRACK 33 AUDIO
    TITLE "3:cjc143_3266"
    INDEX 01 01:03:02
  TRACK 34 AUDIO
    TITLE "0:"
    INDEX 01 01:04:70
  TRACK 35 AUDIO
    TITLE "3:cjc143_3267"
    INDEX 01 01:06:02
  TRACK 36 AUDIO
    TITLE "0:"
    INDEX 01 01:08:07
  TRACK 37 AUDIO
    TITLE "3:cjc143_3268"
    INDEX 01 01:09:14
  TRACK 38 AUDIO
    TITLE "0:"
    INDEX 01 01:11:62
  TRACK 39 AUDIO
    TITLE "3:cjc143_3269"
    INDEX 01 01:13:10
  TRACK 40 AUDIO
    TITLE "0:"
    INDEX 01 01:16:26
  TRACK 41 AUDIO
    TITLE "3:cjc143_3270"
    INDEX 01 01:17:35
  TRACK 42 AUDIO
    TITLE "0:"
    INDEX 01 01:20:08
  TRACK 43 AUDIO
    TITLE "3:cjc143_3271"
    INDEX 01 01:21:14
  TRACK 44 AUDIO
    TITLE "0:"
    INDEX 01 01:24:26
  TRACK 45 AUDIO
    TITLE "3:cjc143_3272"
    INDEX 01 01:25:43
  TRACK 46 AUDIO
    TITLE "0:"
    INDEX 01 01:29:70
  TRACK 47 AUDIO
    TITLE "3:cjc143_3273"
    INDEX 01 01:31:04
  TRACK 48 AUDIO
    TITLE "0:"
    INDEX 01 01:33:62
  TRACK 49 AUDIO
    TITLE "3:cjc143_3274"
    INDEX 01 01:34:73
  TRACK 50 AUDIO
    TITLE "0:"
    INDEX 01 01:37:73
  TRACK 51 AUDIO
    TITLE "3:cjc143_3275"
    INDEX 01 01:39:06
  TRACK 52 AUDIO
    TITLE "0:"
    INDEX 01 01:43:21
  TRACK 53 AUDIO
    TITLE "3:cjc143_3276"
    INDEX 01 01:44:38
  TRACK 54 AUDIO
    TITLE "0:"
    INDEX 01 01:47:09
  TRACK 55 AUDIO
    TITLE "3:cjc143_3277"
    INDEX 01 01:48:16
  TRACK 56 AUDIO
    TITLE "0:"
    INDEX 01 01:52:04
  TRACK 57 AUDIO
    TITLE "3:cjc143_3278"
    INDEX 01 01:53:10
  TRACK 58 AUDIO
    TITLE "0:"
    INDEX 01 01:57:04
  TRACK 59 AUDIO
    TITLE "3:cjc143_3279"
    INDEX 01 01:58:11
  TRACK 60 AUDIO
    TITLE "0:"
    INDEX 01 02:01:19
  TRACK 61 AUDIO
    TITLE "3:cjc143_3280"
    INDEX 01 02:02:30
  TRACK 62 AUDIO
    TITLE "0:"
    INDEX 01 02:04:31
  TRACK 63 AUDIO
    TITLE "3:cjc143_3281"
    INDEX 01 02:05:42
  TRACK 64 AUDIO
    TITLE "0:"
    INDEX 01 02:08:11
  TRACK 65 AUDIO
    TITLE "3:cjc143_3282"
    INDEX 01 02:09:22
  TRACK 66 AUDIO
    TITLE "0:"
    INDEX 01 02:12:44
  TRACK 67 AUDIO
    TITLE "3:cjc143_3283"
    INDEX 01 02:13:61
  TRACK 68 AUDIO
    TITLE "0:"
    INDEX 01 02:18:59
